<?xml version="1.0" standalone="no"?>
<!DOCTYPE svg PUBLIC "-//W3C//DTD SVG 20010904//EN"
 "http://www.w3.org/TR/2001/REC-SVG-20010904/DTD/svg10.dtd">
<svg version="1.0" xmlns="http://www.w3.org/2000/svg"
 width="70.000000pt" height="70.000000pt" viewBox="0 0 70.000000 70.000000"
 preserveAspectRatio="xMidYMid meet">
<metadata>
Created by potrace 1.14, written by Peter Selinger 2001-2017
</metadata>
<g transform="translate(0.000000,70.000000) scale(0.100000,-0.100000)"
fill="#000000" stroke="none">
<path d="M341 674 c-12 -15 -21 -35 -21 -45 0 -11 -3 -18 -7 -17 -15 5 -71
-35 -87 -62 -9 -17 -23 -27 -34 -26 -23 4 -72 -14 -72 -26 0 -5 -4 -7 -8 -4
-5 3 -19 -13 -33 -34 -13 -22 -26 -40 -29 -40 -3 0 -6 -26 -5 -58 0 -62 15
-92 43 -87 30 5 33 -6 7 -27 -14 -11 -23 -23 -21 -27 3 -4 -3 -19 -12 -32 -19
-27 -25 -146 -8 -164 5 -6 66 -10 148 -10 77 0 142 -3 144 -7 3 -5 46 -8 95
-8 118 0 128 8 128 108 0 41 5 80 12 88 6 8 8 14 3 14 -4 0 11 12 34 28 25 15
46 38 49 52 4 14 12 31 20 38 19 20 18 175 -2 192 -8 7 -15 17 -15 22 0 14
-51 58 -61 52 -5 -3 -9 0 -9 5 0 6 -7 11 -15 11 -10 0 -15 10 -15 31 0 48 -22
58 -122 59 -82 0 -88 -1 -107 -26z m54 -556 c0 -31 -5 -43 -15 -43 -17 0 -21
73 -5 91 14 17 21 2 20 -48z m25 -63 c7 -9 10 -18 7 -22 -8 -7 -37 15 -37 28
0 14 16 11 30 -6z"/>
</g>
</svg>
